<svg width="109" height="72" viewBox="0 0 109 72" fill="none" xmlns="http://www.w3.org/2000/svg">
  <path
    d="M0 71.808L26.112 0H37.536L63.648 71.808H51.408L45.39 54.978H17.85L11.832 71.808H0ZM21.42 44.472H41.718L31.62 15.81L21.42 44.472ZM56.1845 71.808V0.408001H81.7865C89.5385 0.408001 95.6585 2.41401 100.146 6.42601C104.634 10.37 106.878 15.946 106.878 23.154C106.878 28.458 105.552 32.878 102.9 36.414C100.248 39.95 96.6445 42.534 92.0885 44.166L108.816 71.808H95.1485L80.0525 46.614H67.9145V71.808H56.1845ZM67.9145 36.108H81.2765C85.4925 36.108 88.8245 35.02 91.2725 32.844C93.7205 30.6 94.9445 27.438 94.9445 23.358C94.9445 19.346 93.7205 16.32 91.2725 14.28C88.8245 12.172 85.4245 11.118 81.0725 11.118H67.9145V36.108Z"
    fill="black" />
</svg>
