<svg xmlns="http://www.w3.org/2000/svg" version="1.1" xmlns:xlink="http://www.w3.org/1999/xlink" xmlns:svgjs="http://svgjs.dev/svgjs" width="512" height="512"><svg width="512" height="512" viewBox="0 0 512 512" fill="none" xmlns="http://www.w3.org/2000/svg">
  <path d="M0 0H512V512H0V0Z" fill="#FEFEFE" fill-opacity="0.95"></path>
  <path d="M31 404.956L138.984 108H186.227L294.211 404.956H243.594L218.707 335.357H104.817L79.9303 404.956H31ZM119.581 291.911H203.522L161.762 173.381L119.581 291.911ZM263.347 404.956V109.687H369.222C401.279 109.687 426.588 117.983 445.146 134.574C463.706 150.884 472.986 173.943 472.986 203.752C472.986 225.686 467.502 243.964 456.535 258.587C445.568 273.21 430.666 283.896 411.825 290.645L481 404.956H424.479L362.051 300.769H311.855V404.956H263.347ZM311.855 257.322H367.113C384.547 257.322 398.327 252.823 408.45 243.824C418.574 234.544 423.635 221.468 423.635 204.595C423.635 188.004 418.574 175.49 408.45 167.054C398.327 158.336 384.266 153.978 366.269 153.978H311.855V257.322Z" fill="#151515" fill-opacity="0.945098"></path>
</svg><style>@media (prefers-color-scheme: light) { :root { filter: none; } }
@media (prefers-color-scheme: dark) { :root { filter: none; } }
</style></svg>